<svg version="1.1" id="Layer_1" xmlns="http://www.w3.org/2000/svg" xmlns:xlink="http://www.w3.org/1999/xlink" x="0px" y="0px"
	 width="100%" viewBox="0 0 280 280" enable-background="new 0 0 280 280" xml:space="preserve">
<path fill="#01237C" opacity="1.000000" stroke="none" 
	d="
M184.000000,281.000000 
	C122.666672,281.000000 61.833347,281.000000 1.000016,281.000000 
	C1.000011,187.666687 1.000011,94.333366 1.000005,1.000041 
	C94.333305,1.000028 187.666611,1.000028 280.999939,1.000014 
	C280.999939,94.333290 280.999939,187.666580 280.999969,280.999939 
	C248.833328,281.000000 216.666672,281.000000 184.000000,281.000000 
M47.049435,115.544739 
	C39.528316,148.197083 45.012962,178.161697 65.518990,205.689514 
	C79.484230,193.678360 95.322929,186.206741 113.102661,182.364838 
	C110.322212,179.208832 107.692924,176.672653 105.587280,173.758148 
	C95.509209,159.808670 93.297813,144.077774 96.398735,127.613869 
	C99.889763,109.078728 110.117294,95.904854 129.160110,91.521584 
	C147.012833,87.412262 163.608261,90.191353 175.992554,104.816116 
	C192.474213,124.279526 191.976746,156.892349 175.613388,176.446899 
	C173.957443,178.425766 172.064590,180.206406 169.949539,182.427887 
	C188.037567,186.170074 203.608398,193.879776 217.427505,205.440903 
	C229.745712,190.320694 236.418625,173.331177 238.456192,154.606552 
	C241.305450,128.422607 236.532928,103.844070 220.996964,82.080719 
	C195.123932,45.836823 148.679153,34.144855 107.145546,48.502052 
	C75.619530,59.399864 55.611687,82.175720 47.049435,115.544739 
M181.135162,232.680099 
	C186.660126,229.780411 192.185089,226.880722 197.743179,223.963638 
	C188.343445,208.746124 162.151031,198.639526 135.971115,200.085022 
	C114.577827,201.266190 91.347298,211.349213 85.693619,224.113235 
	C115.845428,242.528534 147.418228,245.033279 181.135162,232.680099 
z"/>
<path fill="#FEFEFE" opacity="1.000000" stroke="none" 
	d="
M47.120697,115.133560 
	C55.611687,82.175720 75.619530,59.399864 107.145546,48.502052 
	C148.679153,34.144855 195.123932,45.836823 220.996964,82.080719 
	C236.532928,103.844070 241.305450,128.422607 238.456192,154.606552 
	C236.418625,173.331177 229.745712,190.320694 217.427505,205.440903 
	C203.608398,193.879776 188.037567,186.170074 169.949539,182.427887 
	C172.064590,180.206406 173.957443,178.425766 175.613388,176.446899 
	C191.976746,156.892349 192.474213,124.279526 175.992554,104.816116 
	C163.608261,90.191353 147.012833,87.412262 129.160110,91.521584 
	C110.117294,95.904854 99.889763,109.078728 96.398735,127.613869 
	C93.297813,144.077774 95.509209,159.808670 105.587280,173.758148 
	C107.692924,176.672653 110.322212,179.208832 113.102661,182.364838 
	C95.322929,186.206741 79.484230,193.678360 65.518990,205.689514 
	C45.012962,178.161697 39.528316,148.197083 47.120697,115.133560 
z"/>
<path fill="#FDFDFE" opacity="1.000000" stroke="none" 
	d="
M180.771561,232.806152 
	C147.418228,245.033279 115.845428,242.528534 85.693619,224.113235 
	C91.347298,211.349213 114.577827,201.266190 135.971115,200.085022 
	C162.151031,198.639526 188.343445,208.746124 197.743179,223.963638 
	C192.185089,226.880722 186.660126,229.780411 180.771561,232.806152 
z"/>
</svg>